<svg xmlns="http://www.w3.org/2000/svg" xmlns:xlink="http://www.w3.org/1999/xlink" viewBox="0 0 25 25" width="25" height="25" enable-background="new 0 0 25 25"><defs><path id="0" d="m44.5 20h-2.5-8.2-9.8v8.5h11.8c-1.1 5.4-5.7 8.5-11.8 8.5-7.2 0-13-5.8-13-13 0-7.2 5.8-13 13-13 3.1 0 5.9 1.1 8.1 2.9l6.4-6.4c-3.9-3.4-8.9-5.5-14.5-5.5-12.2 0-22 9.8-22 22 0 12.2 9.8 22 22 22 11 0 21-8 21-22 0-1.3-.2-2.7-.5-4"/><clipPath id="1"><use xlink:href="#0"/></clipPath></defs><g transform="matrix(.45455 0 0 .45455 1.818 1.591)"><path clip-path="url(#1)" d="m0 37v-26l17 13" fill="#fbbc05"/><path clip-path="url(#1)" d="m0 11l17 13 7-6.1 24-3.9v-14h-48" fill="#ea4335"/><path clip-path="url(#1)" d="m0 37l30-23 7.9 1 10.1-15v48h-48" fill="#34a853"/><path clip-path="url(#1)" d="m48 48l-31-24-4-3 35-10" fill="#4285f4"/></g></svg>