
<svg width="48px" height="5px" viewBox="0 0 48 5" version="1.1" xmlns="http://www.w3.org/2000/svg" xmlns:xlink="http://www.w3.org/1999/xlink">
    <desc>Created with Sketch.</desc>
    <defs></defs>
    <g id="Final" stroke="none" stroke-width="1" fill="none" fill-rule="evenodd">
        <g id="Artboard-2" fill="#5BCE42">
            <path d="M45.0237524,0.113734113 C43.4752839,-0.00297524013 41.886627,-0.0307631814 40.3314605,0.0345384806 C27.0233387,0.594743376 13.5511146,0.986553348 0.771834669,3.77785205 C-1.66016819,4.30915748 2.38058568,4.80711739 2.95661841,4.8501887 C5.60082782,5.049984 8.72029467,5.12973539 11.2874765,4.56953049 C11.8111426,4.45504417 12.3405934,4.35167303 12.8697397,4.24969129 C13.5361962,4.12075524 14.2063061,3.99932194 14.8773294,3.88094531 C14.9650131,3.86538406 15.5650979,3.76423596 15.7295047,3.73561438 C16.1530044,3.66670028 16.5774176,3.5988977 17.0018307,3.53304028 C19.2201047,3.18846981 21.4563417,2.89808583 23.7017124,2.6446598 C24.7965399,2.52128134 25.7236116,2.43597236 27.2136243,2.31426118 C27.9589352,2.25368347 28.7054638,2.20310942 29.452297,2.15364688 C29.7424445,2.13697412 29.9168984,2.12669258 29.9896637,2.12196863 C30.2874226,2.10724102 30.5854861,2.09279129 30.8832451,2.08056459 C35.1109356,1.89299599 39.3407573,1.72432319 43.5687522,1.54703612 C43.7907014,1.53731034 49.02036,1.14327734 47.8217126,0.581960923 C47.0834043,0.236556813 45.8710564,0.177924257 45.0237524,0.113734113 Z" id="Fill-1"></path>
        </g>
    </g>
</svg>
